HIERARCHY
ROOT hip
{
  OFFSET 0 0 0
  CHANNELS 6 Xposition Yposition Zposition Zrotation Yrotation Xrotation
  JOINT abdomen
  {
    OFFSET 0 20.6881 -0.73152
    CHANNELS 3 Zrotation Xrotation Yrotation
    JOINT chest
    {
      OFFSET 0 11.7043 -0.48768
      CHANNELS 3 Zrotation Xrotation Yrotation
      JOINT neck
      {
        OFFSET 0 22.1894 -2.19456
        CHANNELS 3 Zrotation Xrotation Yrotation
        JOINT head
        {
          OFFSET -0.24384 7.07133 1.2192
          CHANNELS 3 Zrotation Xrotation Yrotation
          JOINT leftEye
          {
            OFFSET 4.14528 8.04674 8.04672
            CHANNELS 3 Zrotation Xrotation Yrotation
            End Site
            {
              OFFSET 1 0 0
            }
          }
          JOINT rightEye
          {
            OFFSET -3.6576 8.04674 8.04672
            CHANNELS 3 Zrotation Xrotation Yrotation
            End Site
            {
              OFFSET 1 0 0
            }
          }
        }
      }
      JOINT rCollar
      {
        OFFSET -2.68224 19.2634 -4.8768
        CHANNELS 3 Zrotation Xrotation Yrotation
        JOINT rShldr
        {
          OFFSET -8.77824 -1.95073 1.46304
          CHANNELS 3 Zrotation Xrotation Yrotation
          JOINT rForeArm
          {
            OFFSET -28.1742 -1.7115 0.48768
            CHANNELS 3 Zrotation Xrotation Yrotation
            JOINT rHand
            {
              OFFSET -22.5879 0.773209 7.07136
              CHANNELS 3 Zrotation Xrotation Yrotation
              JOINT rThumb1
              {
                OFFSET -1.2192 -0.487915 3.41376
                CHANNELS 3 Zrotation Xrotation Yrotation
                JOINT rThumb2
                {
                  OFFSET -3.37035 -0.52449 3.41376
                  CHANNELS 3 Zrotation Xrotation Yrotation
                  End Site
                  {
                    OFFSET -1.78271 -1.18214 1.43049
                  }
                }
              }
              JOINT rIndex1
              {
                OFFSET -7.75947 0.938293 5.60832
                CHANNELS 3 Zrotation Xrotation Yrotation
                JOINT rIndex2
                {
                  OFFSET -2.54057 -0.884171 1.56538
                  CHANNELS 3 Zrotation Xrotation Yrotation
                  End Site
                  {
                    OFFSET -1.62519 -0.234802 1.16502
                  }
                }
              }
              JOINT rMid1
              {
                OFFSET -8.24714 1.18213 3.41376
                CHANNELS 3 Zrotation Xrotation Yrotation
                JOINT rMid2
                {
                  OFFSET -3.10165 -0.590103 1.0647
                  CHANNELS 3 Zrotation Xrotation Yrotation
                  End Site
                  {
                    OFFSET -2.48547 -0.328903 0.83742
                  }
                }
              }
              JOINT rRing1
              {
                OFFSET -8.82822 0.546677 1.51678
                CHANNELS 3 Zrotation Xrotation Yrotation
                JOINT rRing2
                {
                  OFFSET -2.60934 -0.819778 -0.0198488
                  CHANNELS 3 Zrotation Xrotation Yrotation
                  End Site
                  {
                    OFFSET -2.33842 -0.294052 0.168128
                  }
                }
              }
              JOINT rPinky1
              {
                OFFSET -8.27202 -0.0477905 -0.4584
                CHANNELS 3 Zrotation Xrotation Yrotation
                JOINT rPinky2
                {
                  OFFSET -1.82734 -0.647385 -0.700984
                  CHANNELS 3 Zrotation Xrotation Yrotation
                  End Site
                  {
                    OFFSET -1.69225 -0.51767 -0.607171
                  }
                }
              }
            }
          }
        }
      }
      JOINT lCollar
      {
        OFFSET 2.68224 19.2634 -4.8768
        CHANNELS 3 Zrotation Xrotation Yrotation
        JOINT lShldr
        {
          OFFSET 8.77824 -1.95073 1.46304
          CHANNELS 3 Zrotation Xrotation Yrotation
          JOINT lForeArm
          {
            OFFSET 28.1742 -1.7115 0.48768
            CHANNELS 3 Zrotation Xrotation Yrotation
            JOINT lHand
            {
              OFFSET 22.5879 0.773209 7.07136
              CHANNELS 3 Zrotation Xrotation Yrotation
              JOINT lThumb1
              {
                OFFSET 1.2192 -0.487915 3.41376
                CHANNELS 3 Zrotation Xrotation Yrotation
                JOINT lThumb2
                {
                  OFFSET 3.37035 -0.52449 3.41376
                  CHANNELS 3 Zrotation Xrotation Yrotation
                  End Site
                  {
                    OFFSET 1.78271 -1.18214 1.43049
                  }
                }
              }
              JOINT lIndex1
              {
                OFFSET 7.75947 0.938293 5.60832
                CHANNELS 3 Zrotation Xrotation Yrotation
                JOINT lIndex2
                {
                  OFFSET 2.54057 -0.884171 1.56538
                  CHANNELS 3 Zrotation Xrotation Yrotation
                  End Site
                  {
                    OFFSET 1.62519 -0.234802 1.16502
                  }
                }
              }
              JOINT lMid1
              {
                OFFSET 8.24714 1.18213 3.41376
                CHANNELS 3 Zrotation Xrotation Yrotation
                JOINT lMid2
                {
                  OFFSET 3.10165 -0.590103 1.0647
                  CHANNELS 3 Zrotation Xrotation Yrotation
                  End Site
                  {
                    OFFSET 2.48547 -0.328903 0.83742
                  }
                }
              }
              JOINT lRing1
              {
                OFFSET 8.82822 0.546677 1.51678
                CHANNELS 3 Zrotation Xrotation Yrotation
                JOINT lRing2
                {
                  OFFSET 2.60934 -0.819778 -0.0198488
                  CHANNELS 3 Zrotation Xrotation Yrotation
                  End Site
                  {
                    OFFSET 2.33842 -0.294052 0.168128
                  }
                }
              }
              JOINT lPinky1
              {
                OFFSET 8.27202 -0.0477905 -0.4584
                CHANNELS 3 Zrotation Xrotation Yrotation
                JOINT lPinky2
                {
                  OFFSET 1.82734 -0.647385 -0.700984
                  CHANNELS 3 Zrotation Xrotation Yrotation
                  End Site
                  {
                    OFFSET 1.69225 -0.51767 -0.607171
                  }
                }
              }
            }
          }
        }
      }
    }
  }
  JOINT rButtock
  {
    OFFSET -8.77824 4.35084 1.2192
    CHANNELS 3 Zrotation Xrotation Yrotation
    JOINT rThigh
    {
      OFFSET 0 -1.70687 -2.19456
      CHANNELS 3 Zrotation Xrotation Yrotation
      JOINT rShin
      {
        OFFSET 0 -36.8199 0.73152
        CHANNELS 3 Zrotation Xrotation Yrotation
        JOINT rFoot
        {
          OFFSET 0.73152 -45.1104 -5.12064
          CHANNELS 3 Zrotation Xrotation Yrotation
          End Site
          {
            OFFSET -1.1221 -3.69964 12.103
          }
        }
      }
    }
  }
  JOINT lButtock
  {
    OFFSET 8.77824 4.35084 1.2192
    CHANNELS 3 Zrotation Xrotation Yrotation
    JOINT lThigh
    {
      OFFSET 0 -1.70687 -2.19456
      CHANNELS 3 Zrotation Xrotation Yrotation
      JOINT lShin
      {
        OFFSET 0 -36.8199 0.73152
        CHANNELS 3 Zrotation Xrotation Yrotation
        JOINT lFoot
        {
          OFFSET -0.73152 -45.1104 -5.12064
          CHANNELS 3 Zrotation Xrotation Yrotation
          End Site
          {
            OFFSET 1.1221 -3.69964 12.103
          }
        }
      }
    }
  }
}
MOTION
Frames:	4
Frame Time:	0.00833333
-5.31141 84.1879 -12.6974 11.7896 -71.5606 -6.2244 3.54191 13.3452 9.36391 0.390895 -5.30779 2.71098 -3.30412 -7.1752 7.24242 -2.05109 1.155 15.6282 -0.0 0.0 0.0 -0.0 0.0 0.0 -1.32231e-13 -7.0767e-13 6.77657e-13 45.7466 33.8699 41.8166 27.716 -41.7073 -87.0395 -0.00935211 2.76005 0.388204 6.73613e-10 2.50713e-09 -6.01487e-10 1.157e-09 4.32376e-09 -1.04908e-09 6.73613e-10 2.50714e-09 -6.01507e-10 7.73091 5.47488 0.417314 6.73611e-10 2.50713e-09 -6.01494e-10 2.90554 0.965183 0.102902 6.7362e-10 2.50715e-09 -6.01487e-10 10.2786 0.731801 0.0259123 6.73609e-10 2.50715e-09 -6.01481e-10 2.22167 -0.733487 -0.20892 -1.3251e-13 -7.07679e-13 6.77408e-13 -72.213 22.9515 -12.9408 23.9047 -49.5185 -103.585 0.207334 12.8632 -1.83912 8.8287e-10 -4.49322e-09 -4.95528e-09 1.49046e-09 -7.76155e-09 -8.58586e-09 8.8287e-10 -4.49322e-09 -4.95528e-09 -7.73091 5.47488 -0.417314 8.82866e-10 -4.49321e-09 -4.95528e-09 -2.90554 0.965183 -0.102902 8.82867e-10 -4.49321e-09 -4.95528e-09 -10.2786 0.731801 -0.0259123 8.82873e-10 -4.49321e-09 -4.95529e-09 -2.22167 -0.733487 0.20892 -2.03217e-16 0.0 -3.88251e-19 -13.956 -19.4425 -5.54087 -0.464356 46.2639 0.964914 0.294362 -0.454821 5.85753 2.03217e-16 0.0 3.88251e-19 13.9582 -49.0945 13.1651 2.23845 71.1713 -2.67431 0.686127 11.1298 -8.64018
-5.48789 84.4483 -12.15 14.733 -72.2798 -9.2747 2.98616 13.7957 9.53685 0.203995 -5.43378 2.72647 -3.10143 -7.20704 7.3933 -2.3999 1.24846 15.8534 -0.0 0.0 0.0 -0.0 0.0 0.0 -1.137e-13 -4.58081e-13 4.86317e-13 45.7238 34.0963 41.7961 27.7706 -41.465 -86.6066 -0.0120607 3.2776 0.461069 -1.2714e-12 1.96848e-09 -2.43334e-10 -5.41167e-12 3.39582e-09 -4.25776e-10 -1.27104e-12 1.96849e-09 -2.4335e-10 7.73091 5.47488 0.417314 -1.27331e-12 1.96848e-09 -2.43339e-10 2.90554 0.965183 0.102902 -1.26421e-12 1.96849e-09 -2.43332e-10 10.2786 0.731801 0.0259123 -1.27598e-12 1.9685e-09 -2.43326e-10 2.22167 -0.733487 -0.20892 -1.13978e-13 -4.58081e-13 4.8607e-13 -71.7753 22.6594 -12.7578 23.9097 -49.512 -103.569 0.203472 12.7485 -1.82214 4.45923e-10 -3.75579e-09 -3.98361e-09 7.38679e-10 -6.48199e-09 -6.8973e-09 4.45923e-10 -3.75579e-09 -3.98361e-09 -7.73091 5.47488 -0.417314 4.4592e-10 -3.75578e-09 -3.98362e-09 -2.90554 0.965183 -0.102902 4.45919e-10 -3.75578e-09 -3.98362e-09 -10.2786 0.731801 -0.0259123 4.45926e-10 -3.75578e-09 -3.98362e-09 -2.22167 -0.733487 0.20892 -2.03217e-16 0.0 -3.88251e-19 -15.3089 -20.6292 -5.35892 -0.517246 47.8507 0.997134 0.0719533 1.06464 5.08425 2.03217e-16 0.0 3.88251e-19 13.0246 -48.8748 12.8188 2.04422 69.9489 -2.48152 0.70665 11.282 -8.60793
-5.68987 84.6588 -11.636 17.7072 -72.9768 -12.4331 2.3111 14.2925 9.7938 0.0324369 -5.5982 2.76144 -2.89858 -7.18959 7.51159 -2.74595 1.28981 16.0101 -0.0 0.0 0.0 -0.0 0.0 0.0 -7.2202e-14 -4.64248e-14 1.89401e-13 45.8745 34.3046 41.4648 27.8107 -41.2962 -86.2926 -0.0180625 4.00452 0.563613 -1.00124e-09 1.01573e-09 2.90994e-10 -1.72767e-09 1.75392e-09 5.04514e-10 -1.00124e-09 1.01573e-09 2.90982e-10 7.73091 5.47488 0.417314 -1.00124e-09 1.01573e-09 2.90991e-10 2.90554 0.965183 0.102902 -1.00123e-09 1.01574e-09 2.90996e-10 10.2786 0.731801 0.0259123 -1.00124e-09 1.01574e-09 2.91003e-10 2.22167 -0.733487 -0.20892 -7.24404e-14 -4.64093e-14 1.89168e-13 -71.1818 22.3818 -12.6781 23.9309 -49.4851 -103.503 0.195392 12.5013 -1.7856 -2.48992e-10 -2.41888e-09 -2.29823e-09 -4.55403e-10 -4.16447e-09 -3.96984e-09 -2.48992e-10 -2.41888e-09 -2.29822e-09 -7.73091 5.47488 -0.417314 -2.48994e-10 -2.41888e-09 -2.29823e-09 -2.90554 0.965183 -0.102902 -2.48999e-10 -2.41888e-09 -2.29823e-09 -10.2786 0.731801 -0.0259123 -2.48989e-10 -2.41888e-09 -2.29823e-09 -2.22167 -0.733487 0.20892 -2.03217e-16 0.0 -3.88251e-19 -16.6737 -21.9393 -5.11019 -0.580734 49.6161 1.03377 -0.104679 2.28747 4.08936 2.03217e-16 0.0 3.88251e-19 12.0338 -48.5357 12.365 1.84742 68.5372 -2.28744 0.730153 11.4499 -8.63038
-5.91274 84.8065 -11.1535 20.8605 -73.627 -15.7454 1.60957 14.7789 10.0654 -0.105298 -5.73458 2.80041 -2.72741 -7.1592 7.61943 -3.05087 1.29111 16.1571 -0.0 0.0 0.0 -0.0 0.0 0.0 -2.88344e-14 3.66475e-13 -1.07519e-13 46.0733 34.512 41.0096 27.8378 -41.1898 -86.0862 -0.0269429 4.76988 0.671856 -1.98889e-09 6.1232e-11 8.20354e-10 -3.42869e-09 1.09108e-10 1.42627e-09 -1.98889e-09 6.12294e-11 8.20345e-10 7.73091 5.47488 0.417314 -1.98889e-09 6.12336e-11 8.20353e-10 2.90554 0.965183 0.102902 -1.98888e-09 6.12351e-11 8.20356e-10 10.2786 0.731801 0.0259123 -1.98889e-09 6.12343e-11 8.20363e-10 2.22167 -0.733487 -0.20892 -2.90213e-14 3.66505e-13 -1.07734e-13 -70.4666 22.04 -12.7226 23.9616 -49.4459 -103.406 0.187241 12.2409 -1.74725 -9.67802e-10 -1.08356e-09 -6.19379e-10 -1.69079e-09 -1.85e-09 -1.05348e-09 -9.67802e-10 -1.08356e-09 -6.19373e-10 -7.73091 5.47488 -0.417314 -9.67803e-10 -1.08356e-09 -6.19381e-10 -2.90554 0.965183 -0.102902 -9.67811e-10 -1.08356e-09 -6.19383e-10 -10.2786 0.731801 -0.0259123 -9.67798e-10 -1.08356e-09 -6.19384e-10 -2.22167 -0.733487 0.20892 -2.03217e-16 0.0 -3.88251e-19 -17.9176 -23.1888 -4.76716 -0.644841 51.2831 1.07068 -0.230433 3.04035 2.92827 2.03217e-16 0.0 3.88251e-19 11.136 -48.1028 11.8952 1.65814 66.977 -2.10044 0.759619 11.6213 -8.70111
